<svg
        xmlns="http://www.w3.org/2000/svg"
        xmlns:xlink="http://www.w3.org/1999/xlink"
        width="12px" height="16px">
    <path fill-rule="evenodd"  fill="rgb(255, 255, 255)"
          d="M6.928,15.372 L6.925,15.370 C6.778,15.738 6.420,16.000 6.000,16.000 C5.579,16.000 5.222,15.738 5.074,15.370 L5.071,15.372 C5.071,15.314 0.000,9.954 0.000,6.000 C0.000,2.998 1.930,-0.000 6.000,-0.000 C10.000,-0.000 12.000,3.135 12.000,6.000 C12.000,9.981 6.890,15.409 6.928,15.372 ZM4.000,6.000 C4.000,4.895 4.895,4.000 6.000,4.000 C7.105,4.000 8.000,4.895 8.000,6.000 C8.000,7.105 7.105,8.000 6.000,8.000 C4.895,8.000 4.000,7.105 4.000,6.000 Z"/>
</svg>